<svg xmlns="http://www.w3.org/2000/svg" width="800" height="460" viewBox="0 0 800 460" role="img" aria-labelledby="title desc">
  <title id="title">BehaviorTune V1.1-R1 format-valid activation</title>
  <desc id="desc">Bar chart: BASE 65.625 percent, SYSTEM 93.75 percent, CONTEXT 100 percent, QLoRA 100 percent.</desc>
  <rect width="800" height="460" fill="#ffffff"/>
  <text x="400" y="34" text-anchor="middle" font-family="sans-serif" font-size="22" font-weight="700">V1.1-R1 format-valid activation</text>
  <text x="400" y="58" text-anchor="middle" font-family="sans-serif" font-size="13" fill="#4b5563">64 eval_core scenarios per condition · activation subset n=32</text>
  <line x1="90" y1="390" x2="750" y2="390" stroke="#111827"/>
  <line x1="90" y1="90" x2="90" y2="390" stroke="#111827"/>
  <line x1="90" y1="90" x2="750" y2="90" stroke="#d1d5db" stroke-dasharray="4 4"/>
  <line x1="90" y1="240" x2="750" y2="240" stroke="#e5e7eb" stroke-dasharray="4 4"/>
  <text x="78" y="395" text-anchor="end" font-family="sans-serif" font-size="12">0%</text>
  <text x="78" y="245" text-anchor="end" font-family="sans-serif" font-size="12">50%</text>
  <text x="78" y="95" text-anchor="end" font-family="sans-serif" font-size="12">100%</text>
  <rect x="130" y="193.125" width="110" height="196.875" fill="#94a3b8"/>
  <rect x="290" y="108.75" width="110" height="281.25" fill="#60a5fa"/>
  <rect x="450" y="90" width="110" height="300" fill="#34d399"/>
  <rect x="610" y="90" width="110" height="300" fill="#8b5cf6"/>
  <g font-family="sans-serif" font-size="14" text-anchor="middle">
    <text x="185" y="415">BASE</text><text x="185" y="184">65.625%</text>
    <text x="345" y="415">SYSTEM</text><text x="345" y="100">93.75%</text>
    <text x="505" y="415">CONTEXT</text><text x="505" y="82">100%</text>
    <text x="665" y="415">QLoRA</text><text x="665" y="82">100%</text>
  </g>
  <text x="400" y="447" text-anchor="middle" font-family="sans-serif" font-size="12" fill="#4b5563">QLoRA − BASE = 0.34375; paired-bootstrap 95% CI [0.1875, 0.5]</text>
</svg>
